<mxfile host="Electron" agent="Mozilla/5.0 (Windows NT 10.0; Win64; x64) AppleWebKit/537.36 (KHTML, like Gecko) draw.io/28.0.4 Chrome/138.0.7204.97 Electron/37.2.1 Safari/537.36" version="28.0.4">
  <diagram name="Page-1" id="-KXkkzOOEYlL0kXJ-rws">
    <mxGraphModel dx="1892" dy="1750" grid="1" gridSize="10" guides="1" tooltips="1" connect="1" arrows="1" fold="1" page="1" pageScale="1" pageWidth="850" pageHeight="1100" math="0" shadow="0">
      <root>
        <mxCell id="0" />
        <mxCell id="1" parent="0" />
        <mxCell id="09kLHX5YUNb4B7QEoUPO-28" value="" style="rounded=0;whiteSpace=wrap;html=1;dashed=1;shadow=0;glass=0;fillColor=none;fontSize=16;" parent="1" vertex="1">
          <mxGeometry x="-20" width="430" height="550" as="geometry" />
        </mxCell>
        <mxCell id="09kLHX5YUNb4B7QEoUPO-6" style="edgeStyle=orthogonalEdgeStyle;rounded=0;orthogonalLoop=1;jettySize=auto;html=1;fontSize=16;" parent="1" source="09kLHX5YUNb4B7QEoUPO-1" target="09kLHX5YUNb4B7QEoUPO-5" edge="1">
          <mxGeometry relative="1" as="geometry" />
        </mxCell>
        <mxCell id="09kLHX5YUNb4B7QEoUPO-24" style="edgeStyle=orthogonalEdgeStyle;rounded=0;orthogonalLoop=1;jettySize=auto;html=1;exitX=0.75;exitY=0;exitDx=0;exitDy=0;entryX=0.75;entryY=1;entryDx=0;entryDy=0;fontSize=16;" parent="1" source="09kLHX5YUNb4B7QEoUPO-1" target="09kLHX5YUNb4B7QEoUPO-15" edge="1">
          <mxGeometry relative="1" as="geometry" />
        </mxCell>
        <mxCell id="09kLHX5YUNb4B7QEoUPO-1" value="LangChain" style="rounded=0;whiteSpace=wrap;html=1;fontSize=16;" parent="1" vertex="1">
          <mxGeometry x="20" y="290" width="120" height="60" as="geometry" />
        </mxCell>
        <mxCell id="09kLHX5YUNb4B7QEoUPO-7" style="edgeStyle=orthogonalEdgeStyle;rounded=0;orthogonalLoop=1;jettySize=auto;html=1;entryX=0.5;entryY=0;entryDx=0;entryDy=0;fontSize=16;" parent="1" source="09kLHX5YUNb4B7QEoUPO-2" target="09kLHX5YUNb4B7QEoUPO-15" edge="1">
          <mxGeometry relative="1" as="geometry">
            <mxPoint x="320" y="150" as="targetPoint" />
          </mxGeometry>
        </mxCell>
        <mxCell id="09kLHX5YUNb4B7QEoUPO-2" value="Actor" style="shape=umlActor;verticalLabelPosition=bottom;verticalAlign=top;html=1;outlineConnect=0;fontSize=16;" parent="1" vertex="1">
          <mxGeometry x="250" y="30" width="50" height="100" as="geometry" />
        </mxCell>
        <mxCell id="09kLHX5YUNb4B7QEoUPO-5" value="Ollama" style="rounded=0;whiteSpace=wrap;html=1;fontSize=16;" parent="1" vertex="1">
          <mxGeometry x="20" y="470" width="120" height="60" as="geometry" />
        </mxCell>
        <mxCell id="09kLHX5YUNb4B7QEoUPO-31" style="edgeStyle=orthogonalEdgeStyle;rounded=0;orthogonalLoop=1;jettySize=auto;html=1;exitX=1;exitY=0.5;exitDx=0;exitDy=0;entryX=0;entryY=0.5;entryDx=0;entryDy=0;" parent="1" source="09kLHX5YUNb4B7QEoUPO-11" target="09kLHX5YUNb4B7QEoUPO-30" edge="1">
          <mxGeometry relative="1" as="geometry" />
        </mxCell>
        <mxCell id="09kLHX5YUNb4B7QEoUPO-11" value="LangSmith" style="rounded=0;whiteSpace=wrap;html=1;fontSize=16;" parent="1" vertex="1">
          <mxGeometry x="215" y="360" width="120" height="60" as="geometry" />
        </mxCell>
        <mxCell id="09kLHX5YUNb4B7QEoUPO-12" value="" style="endArrow=none;html=1;rounded=0;entryX=0;entryY=0.5;entryDx=0;entryDy=0;fontSize=16;" parent="1" target="09kLHX5YUNb4B7QEoUPO-11" edge="1">
          <mxGeometry width="50" height="50" relative="1" as="geometry">
            <mxPoint x="80" y="390" as="sourcePoint" />
            <mxPoint x="345" y="460" as="targetPoint" />
          </mxGeometry>
        </mxCell>
        <mxCell id="09kLHX5YUNb4B7QEoUPO-17" style="edgeStyle=orthogonalEdgeStyle;rounded=0;orthogonalLoop=1;jettySize=auto;html=1;entryX=0.5;entryY=0;entryDx=0;entryDy=0;fontSize=16;" parent="1" source="09kLHX5YUNb4B7QEoUPO-15" target="09kLHX5YUNb4B7QEoUPO-1" edge="1">
          <mxGeometry relative="1" as="geometry" />
        </mxCell>
        <mxCell id="09kLHX5YUNb4B7QEoUPO-26" style="edgeStyle=orthogonalEdgeStyle;rounded=0;orthogonalLoop=1;jettySize=auto;html=1;exitX=1;exitY=0.5;exitDx=0;exitDy=0;fontSize=16;" parent="1" source="09kLHX5YUNb4B7QEoUPO-15" target="09kLHX5YUNb4B7QEoUPO-2" edge="1">
          <mxGeometry relative="1" as="geometry" />
        </mxCell>
        <mxCell id="09kLHX5YUNb4B7QEoUPO-15" value="Prompt Template" style="rounded=0;whiteSpace=wrap;html=1;fontSize=16;" parent="1" vertex="1">
          <mxGeometry x="20" y="170" width="120" height="60" as="geometry" />
        </mxCell>
        <mxCell id="09kLHX5YUNb4B7QEoUPO-36" style="edgeStyle=orthogonalEdgeStyle;rounded=0;orthogonalLoop=1;jettySize=auto;html=1;entryX=0;entryY=0.5;entryDx=0;entryDy=0;" parent="1" source="09kLHX5YUNb4B7QEoUPO-18" target="09kLHX5YUNb4B7QEoUPO-37" edge="1">
          <mxGeometry relative="1" as="geometry">
            <mxPoint x="450" y="185" as="targetPoint" />
          </mxGeometry>
        </mxCell>
        <mxCell id="09kLHX5YUNb4B7QEoUPO-18" value="AI message" style="text;whiteSpace=wrap;html=1;align=center;rotation=0;fontSize=16;" parent="1" vertex="1">
          <mxGeometry x="170" y="170" width="90" height="30" as="geometry" />
        </mxCell>
        <mxCell id="09kLHX5YUNb4B7QEoUPO-21" style="edgeStyle=orthogonalEdgeStyle;rounded=0;orthogonalLoop=1;jettySize=auto;html=1;entryX=0.75;entryY=1;entryDx=0;entryDy=0;exitX=0.75;exitY=0;exitDx=0;exitDy=0;fontSize=16;" parent="1" source="09kLHX5YUNb4B7QEoUPO-5" target="09kLHX5YUNb4B7QEoUPO-1" edge="1">
          <mxGeometry relative="1" as="geometry">
            <mxPoint x="260" y="460" as="sourcePoint" />
            <mxPoint x="260" y="520" as="targetPoint" />
          </mxGeometry>
        </mxCell>
        <mxCell id="09kLHX5YUNb4B7QEoUPO-34" style="edgeStyle=orthogonalEdgeStyle;rounded=0;orthogonalLoop=1;jettySize=auto;html=1;entryX=1;entryY=0.5;entryDx=0;entryDy=0;" parent="1" source="09kLHX5YUNb4B7QEoUPO-22" target="09kLHX5YUNb4B7QEoUPO-35" edge="1">
          <mxGeometry relative="1" as="geometry">
            <mxPoint x="-50" y="120" as="targetPoint" />
          </mxGeometry>
        </mxCell>
        <mxCell id="09kLHX5YUNb4B7QEoUPO-22" value="&lt;span style=&quot;color: rgb(0, 0, 0); font-family: Helvetica; font-style: normal; font-variant-ligatures: normal; font-variant-caps: normal; font-weight: 400; letter-spacing: normal; orphans: 2; text-align: center; text-indent: 0px; text-transform: none; widows: 2; word-spacing: 0px; -webkit-text-stroke-width: 0px; white-space: normal; background-color: rgb(236, 236, 236); text-decoration-thickness: initial; text-decoration-style: initial; text-decoration-color: initial; float: none; display: inline !important;&quot;&gt;Human message&lt;/span&gt;" style="text;whiteSpace=wrap;html=1;fontSize=16;" parent="1" vertex="1">
          <mxGeometry x="110" y="50" width="130" height="30" as="geometry" />
        </mxCell>
        <mxCell id="09kLHX5YUNb4B7QEoUPO-23" value="Response" style="text;whiteSpace=wrap;html=1;align=center;rotation=90;fontSize=16;" parent="1" vertex="1">
          <mxGeometry x="95" y="415" width="60" height="30" as="geometry" />
        </mxCell>
        <mxCell id="09kLHX5YUNb4B7QEoUPO-32" style="edgeStyle=orthogonalEdgeStyle;rounded=0;orthogonalLoop=1;jettySize=auto;html=1;entryX=0;entryY=0.5;entryDx=0;entryDy=0;" parent="1" source="09kLHX5YUNb4B7QEoUPO-29" target="09kLHX5YUNb4B7QEoUPO-33" edge="1">
          <mxGeometry relative="1" as="geometry">
            <mxPoint x="340" y="-20" as="targetPoint" />
          </mxGeometry>
        </mxCell>
        <mxCell id="09kLHX5YUNb4B7QEoUPO-29" value="&lt;span style=&quot;color: rgb(0, 0, 0); font-family: Helvetica; font-style: normal; font-variant-ligatures: normal; font-variant-caps: normal; font-weight: 400; letter-spacing: normal; orphans: 2; text-align: center; text-indent: 0px; text-transform: none; widows: 2; word-spacing: 0px; -webkit-text-stroke-width: 0px; white-space: normal; background-color: rgb(236, 236, 236); text-decoration-thickness: initial; text-decoration-style: initial; text-decoration-color: initial; float: none; display: inline !important;&quot;&gt;&lt;font&gt;System message&lt;/font&gt;&lt;/span&gt;" style="text;whiteSpace=wrap;html=1;fontSize=16;" parent="1" vertex="1">
          <mxGeometry x="110" y="-30" width="150" height="20" as="geometry" />
        </mxCell>
        <mxCell id="09kLHX5YUNb4B7QEoUPO-30" value="&lt;font style=&quot;font-size: 16px;&quot;&gt;giúp quan sát chi tiết quá trình truyền – nhận giữa người dùng và LLM&lt;/font&gt;" style="text;whiteSpace=wrap;html=1;fillColor=default;strokeColor=default;" parent="1" vertex="1">
          <mxGeometry x="480" y="350" width="230" height="80" as="geometry" />
        </mxCell>
        <mxCell id="09kLHX5YUNb4B7QEoUPO-33" value="“Thiết lập vai trò: ví dụ ‘Act as doctor’”" style="text;whiteSpace=wrap;html=1;" parent="1" vertex="1">
          <mxGeometry x="350" y="-37.5" width="130" height="35" as="geometry" />
        </mxCell>
        <mxCell id="09kLHX5YUNb4B7QEoUPO-35" value="“Câu hỏi từ người dùng: ‘Tôi bị ho thì nên làm gì?’”" style="text;whiteSpace=wrap;html=1;" parent="1" vertex="1">
          <mxGeometry x="-190" y="50" width="150" height="30" as="geometry" />
        </mxCell>
        <mxCell id="09kLHX5YUNb4B7QEoUPO-37" value="“Phản hồi từ LLM”" style="text;whiteSpace=wrap;html=1;" parent="1" vertex="1">
          <mxGeometry x="460" y="170" width="100" height="30" as="geometry" />
        </mxCell>
        <mxCell id="tD2ICSkboSZ-bijwQywd-5" style="edgeStyle=orthogonalEdgeStyle;rounded=0;orthogonalLoop=1;jettySize=auto;html=1;entryX=0.5;entryY=0;entryDx=0;entryDy=0;fontSize=15;" parent="1" source="tD2ICSkboSZ-bijwQywd-3" target="tD2ICSkboSZ-bijwQywd-4" edge="1">
          <mxGeometry relative="1" as="geometry" />
        </mxCell>
        <mxCell id="tD2ICSkboSZ-bijwQywd-3" value="Actor" style="shape=umlActor;verticalLabelPosition=bottom;verticalAlign=top;html=1;outlineConnect=0;fontSize=15;" parent="1" vertex="1">
          <mxGeometry x="1145" y="30" width="50" height="100" as="geometry" />
        </mxCell>
        <mxCell id="tD2ICSkboSZ-bijwQywd-9" value="" style="edgeStyle=orthogonalEdgeStyle;rounded=0;orthogonalLoop=1;jettySize=auto;html=1;" parent="1" source="tD2ICSkboSZ-bijwQywd-4" target="tD2ICSkboSZ-bijwQywd-8" edge="1">
          <mxGeometry relative="1" as="geometry" />
        </mxCell>
        <mxCell id="tD2ICSkboSZ-bijwQywd-4" value="General LLM" style="shape=parallelogram;perimeter=parallelogramPerimeter;whiteSpace=wrap;html=1;fixedSize=1;fontSize=15;" parent="1" vertex="1">
          <mxGeometry x="1100" y="240" width="140" height="70" as="geometry" />
        </mxCell>
        <mxCell id="tD2ICSkboSZ-bijwQywd-6" value="Question" style="text;html=1;align=center;verticalAlign=middle;whiteSpace=wrap;rounded=0;fontSize=15;" parent="1" vertex="1">
          <mxGeometry x="1185" y="205" width="60" height="30" as="geometry" />
        </mxCell>
        <mxCell id="tD2ICSkboSZ-bijwQywd-7" style="edgeStyle=orthogonalEdgeStyle;rounded=0;orthogonalLoop=1;jettySize=auto;html=1;exitX=0.5;exitY=1;exitDx=0;exitDy=0;" parent="1" source="tD2ICSkboSZ-bijwQywd-6" target="tD2ICSkboSZ-bijwQywd-6" edge="1">
          <mxGeometry relative="1" as="geometry" />
        </mxCell>
        <mxCell id="tD2ICSkboSZ-bijwQywd-11" value="" style="edgeStyle=orthogonalEdgeStyle;rounded=0;orthogonalLoop=1;jettySize=auto;html=1;" parent="1" source="tD2ICSkboSZ-bijwQywd-8" target="tD2ICSkboSZ-bijwQywd-10" edge="1">
          <mxGeometry relative="1" as="geometry" />
        </mxCell>
        <mxCell id="tD2ICSkboSZ-bijwQywd-13" value="" style="edgeStyle=orthogonalEdgeStyle;rounded=0;orthogonalLoop=1;jettySize=auto;html=1;" parent="1" source="tD2ICSkboSZ-bijwQywd-8" target="tD2ICSkboSZ-bijwQywd-12" edge="1">
          <mxGeometry relative="1" as="geometry" />
        </mxCell>
        <mxCell id="tD2ICSkboSZ-bijwQywd-8" value="Router" style="rhombus;whiteSpace=wrap;html=1;fontSize=15;" parent="1" vertex="1">
          <mxGeometry x="1115" y="410" width="110" height="110" as="geometry" />
        </mxCell>
        <mxCell id="tD2ICSkboSZ-bijwQywd-10" value="Medicine LLM" style="whiteSpace=wrap;html=1;fontSize=15;" parent="1" vertex="1">
          <mxGeometry x="1310" y="560" width="120" height="60" as="geometry" />
        </mxCell>
        <mxCell id="tD2ICSkboSZ-bijwQywd-12" value="Finetech LLM" style="whiteSpace=wrap;html=1;fontSize=15;" parent="1" vertex="1">
          <mxGeometry x="920" y="560" width="120" height="60" as="geometry" />
        </mxCell>
        <mxCell id="tD2ICSkboSZ-bijwQywd-14" value="Finetech or Medicine" style="text;html=1;align=center;verticalAlign=middle;whiteSpace=wrap;rounded=0;fontSize=15;" parent="1" vertex="1">
          <mxGeometry x="1180" y="350" width="60" height="30" as="geometry" />
        </mxCell>
        <mxCell id="tD2ICSkboSZ-bijwQywd-15" style="edgeStyle=orthogonalEdgeStyle;rounded=0;orthogonalLoop=1;jettySize=auto;html=1;entryX=0.5;entryY=0;entryDx=0;entryDy=0;fontSize=15;" parent="1" source="tD2ICSkboSZ-bijwQywd-16" target="tD2ICSkboSZ-bijwQywd-18" edge="1">
          <mxGeometry relative="1" as="geometry" />
        </mxCell>
        <mxCell id="tD2ICSkboSZ-bijwQywd-16" value="Actor" style="shape=umlActor;verticalLabelPosition=bottom;verticalAlign=top;html=1;outlineConnect=0;fontSize=15;" parent="1" vertex="1">
          <mxGeometry x="1715" y="30" width="50" height="100" as="geometry" />
        </mxCell>
        <mxCell id="tD2ICSkboSZ-bijwQywd-17" value="" style="edgeStyle=orthogonalEdgeStyle;rounded=0;orthogonalLoop=1;jettySize=auto;html=1;" parent="1" source="tD2ICSkboSZ-bijwQywd-18" target="tD2ICSkboSZ-bijwQywd-23" edge="1">
          <mxGeometry relative="1" as="geometry" />
        </mxCell>
        <mxCell id="tD2ICSkboSZ-bijwQywd-18" value="General LLM" style="shape=parallelogram;perimeter=parallelogramPerimeter;whiteSpace=wrap;html=1;fixedSize=1;fontSize=15;" parent="1" vertex="1">
          <mxGeometry x="1670" y="240" width="140" height="70" as="geometry" />
        </mxCell>
        <mxCell id="tD2ICSkboSZ-bijwQywd-19" value="Question -&amp;gt; Review" style="text;html=1;align=center;verticalAlign=middle;whiteSpace=wrap;rounded=0;fontSize=15;" parent="1" vertex="1">
          <mxGeometry x="1750" y="200" width="155" height="30" as="geometry" />
        </mxCell>
        <mxCell id="tD2ICSkboSZ-bijwQywd-20" style="edgeStyle=orthogonalEdgeStyle;rounded=0;orthogonalLoop=1;jettySize=auto;html=1;exitX=0.5;exitY=1;exitDx=0;exitDy=0;" parent="1" source="tD2ICSkboSZ-bijwQywd-19" target="tD2ICSkboSZ-bijwQywd-19" edge="1">
          <mxGeometry relative="1" as="geometry" />
        </mxCell>
        <mxCell id="tD2ICSkboSZ-bijwQywd-21" value="" style="edgeStyle=orthogonalEdgeStyle;rounded=0;orthogonalLoop=1;jettySize=auto;html=1;" parent="1" source="tD2ICSkboSZ-bijwQywd-23" target="tD2ICSkboSZ-bijwQywd-24" edge="1">
          <mxGeometry relative="1" as="geometry" />
        </mxCell>
        <mxCell id="tD2ICSkboSZ-bijwQywd-22" value="" style="edgeStyle=orthogonalEdgeStyle;rounded=0;orthogonalLoop=1;jettySize=auto;html=1;" parent="1" source="tD2ICSkboSZ-bijwQywd-23" target="tD2ICSkboSZ-bijwQywd-25" edge="1">
          <mxGeometry relative="1" as="geometry" />
        </mxCell>
        <mxCell id="tD2ICSkboSZ-bijwQywd-23" value="Router" style="rhombus;whiteSpace=wrap;html=1;fontSize=15;" parent="1" vertex="1">
          <mxGeometry x="1685" y="410" width="110" height="110" as="geometry" />
        </mxCell>
        <mxCell id="tD2ICSkboSZ-bijwQywd-24" value="Negative Chain" style="whiteSpace=wrap;html=1;fontSize=15;" parent="1" vertex="1">
          <mxGeometry x="1860" y="560" width="100" height="60" as="geometry" />
        </mxCell>
        <mxCell id="tD2ICSkboSZ-bijwQywd-25" value="Positive Chain" style="whiteSpace=wrap;html=1;fontSize=15;" parent="1" vertex="1">
          <mxGeometry x="1520" y="560" width="90" height="60" as="geometry" />
        </mxCell>
        <mxCell id="tD2ICSkboSZ-bijwQywd-26" value="Positive or Negative" style="text;html=1;align=center;verticalAlign=middle;whiteSpace=wrap;rounded=0;fontSize=15;" parent="1" vertex="1">
          <mxGeometry x="1750" y="350" width="70" height="30" as="geometry" />
        </mxCell>
      </root>
    </mxGraphModel>
  </diagram>
</mxfile>
